# xmcd
#
# Track frame offsets: 
#        150
#        25194
#        45357
#        68041
#        90115
#        110376
#        134923
#        161098
#        187719
#        202901
#        229265
#        247259
#
# Disc length: 3586 seconds
#
# Revision: 0
# Processed by: cddbd v1.5.2PL0 Copyright (c) Steve Scherf et al.
# Submitted via: ExactAudioCopy v0.99pb5
#
DISCID=980e000c
DTITLE=Robson Fernandes - Gumbo Blues
DYEAR=2006
DGENRE=Blues
TTITLE0=Sweet Young Thing
TTITLE1=L. W. Boogie
TTITLE2=I Can't Hide The Truth
TTITLE3=Sugar Mama
TTITLE4=Have You Ever Been In Love
TTITLE5=In Your Face 
TTITLE6=Man Of Devotion
TTITLE7=Mellow Boogie
TTITLE8=Sliver Spoon
TTITLE9=Forgive Me
TTITLE10=Don't Wanna Lose Your Love
TTITLE11=SP Groove
EXTD=
EXTT0=
EXTT1=
EXTT2=
EXTT3=
EXTT4=
EXTT5=
EXTT6=
EXTT7=
EXTT8=
EXTT9=
EXTT10=
EXTT11=
PLAYORDER=
